<?xml version="1.0" encoding="UTF-8"?>
<svg width="151px" height="16px" viewBox="0 0 151 16" version="1.1" xmlns="http://www.w3.org/2000/svg" xmlns:xlink="http://www.w3.org/1999/xlink">
    <!-- Generator: Sketch 59.1 (86144) - https://sketch.com -->
    <title>DH-mainlogo</title>
    <desc>Created with Sketch.</desc>
    <defs>
        <polygon id="path-1" points="0.056625 0.0141176471 54.967775 0.0141176471 54.967775 15.0023529 0.056625 15.0023529"></polygon>
        <polygon id="path-3" points="0.52189375 0.889411765 24.9942921 0.889411765 24.9942921 15.9435294 0.52189375 15.9435294"></polygon>
        <polygon id="path-5" points="0.381275 0.0141176471 19.2572188 0.0141176471 19.2572188 15.0023529 0.381275 15.0023529"></polygon>
    </defs>
    <g id="Icons" stroke="none" stroke-width="1" fill="none" fill-rule="evenodd">
        <g id="logo" transform="translate(-14.000000, -22.000000)">
            <g id="DH-mainlogo" transform="translate(14.000000, 22.000000)">
                <g id="Group-7" transform="translate(0.000000, 0.941176)">
                    <mask id="mask-2" fill="white">
                        <use xlink:href="#path-1"></use>
                    </mask>
                    <g id="Clip-2"></g>
                    <path d="M10.68325,7.47388235 C10.68325,5.26776471 10.8484062,3.24705882 9.19684375,1.59905882 C8.225725,0.630588235 6.8403,0.199529412 5.31048125,0.199529412 L0,0.199529412 L0,14.8743529 L5.31048125,14.8743529 C6.8403,14.8743529 8.225725,14.4414118 9.19684375,13.4729412 C10.8484062,11.8249412 10.68325,9.68 10.68325,7.47388235 M7.81330625,7.47388235 C7.81330625,9.70070588 7.73025625,10.7538824 7.19231875,11.4127059 C6.69590625,12.0112941 6.0343375,12.3209412 5.0415125,12.3209412 L2.86994375,12.3209412 L2.86994375,2.752 L5.0415125,2.752 C6.0343375,2.752 6.69590625,3.06164706 7.19231875,3.66023529 C7.73025625,4.31905882 7.81330625,5.24705882 7.81330625,7.47388235" id="Fill-1" fill="#000000" mask="url(#mask-2)"></path>
                    <polyline id="Fill-3" fill="#000000" mask="url(#mask-2)" points="13.1539875 14.8743529 22.2036062 14.8743529 22.2036062 12.32 15.8332937 12.32 15.8332937 8.75105882 21.2579687 8.75105882 21.2579687 6.19670588 15.8332937 6.19670588 15.8332937 2.752 22.2036062 2.752 22.2036062 0.199529412 13.1539875 0.199529412 13.1539875 14.8743529"></polyline>
                    <path d="M27.5848687,4.01317647 C27.5848687,3.22917647 28.2454937,2.608 29.456325,2.608 C30.5303125,2.608 31.5656062,3.09176471 32.5272875,3.872 L32.69905,4.01129412 L34.295875,1.86447059 L34.1495937,1.73647059 C32.800975,0.56 31.2201937,0.0141176471 29.5157812,0.0141176471 C26.7694687,0.0141176471 24.77155,1.73458824 24.77155,4.25788235 C24.77155,6.68517647 26.3098625,7.73082353 29.033525,8.75294118 C31.3004125,9.58682353 31.6335562,10.1327059 31.6335562,10.8969412 C31.6335562,11.8032941 30.8889375,12.4442353 29.5978875,12.4442353 C28.1633875,12.4442353 27.0280562,11.8042353 25.9823812,10.8621176 L25.7313437,10.6183529 L24.12225,12.8122353 L24.2675875,12.9468235 C25.85875,14.4084706 27.6867937,15.0588235 29.577125,15.0588235 C32.3432562,15.0588235 34.4261125,13.3816471 34.4261125,10.6927059 C34.4261125,8.47905882 33.0888187,7.328 30.4095125,6.30023529 C27.9642562,5.35811765 27.5848687,4.87341176 27.5848687,4.01317647" id="Fill-4" fill="#000000" mask="url(#mask-2)"></path>
                    <polygon id="Fill-5" fill="#000000" mask="url(#mask-2)" points="37.5961687 14.8734118 40.4661125 14.8734118 40.4661125 0.199529412 37.5961687 0.199529412"></polygon>
                    <path d="M53.563475,13.3496471 C54.5770625,12.2795294 54.967775,11.0174118 54.967775,8.87247059 L54.967775,6.20611765 L49.4090875,6.20611765 L49.4090875,8.76517647 L52.2818625,8.76517647 L52.2818625,9.67905882 C52.2818625,10.4837647 52.0544187,11.1444706 51.61935,11.6395294 C51.1031187,12.1967059 50.2575187,12.4658824 49.4090875,12.4658824 C48.6229437,12.4658824 48.0019562,12.2164706 47.5678312,11.7007059 C46.9893125,11.0211765 46.8637937,10.4432941 46.8637937,7.55764706 C46.8637937,4.65035294 47.0298937,4.11294118 47.5678312,3.43341176 C47.9443875,3.00611765 48.4351375,2.75105882 49.0278125,2.67576471 C49.1571062,2.65694118 49.2948937,2.64941176 49.441175,2.64941176 C50.5161062,2.64941176 51.5532875,3.13411765 52.5149687,3.91247059 L52.6857875,4.05176471 L54.2835562,1.90588235 L54.1353875,1.77694118 C52.7886562,0.600470588 51.2050437,0.0545882353 49.5025187,0.0545882353 L49.2042937,0.0621176471 C47.7367625,0.118588235 46.4579812,0.687058824 45.4387312,1.70164706 C44.7988687,2.34070588 44.4062687,3.06164706 44.2411125,3.90776471 C44.0759562,4.73317647 43.99385,5.95011765 43.99385,7.55764706 C43.99385,9.16423529 44.0759562,10.3821176 44.2411125,11.2065882 C44.4062687,12.032 44.7988687,12.7736471 45.4387312,13.4127059 C46.5136625,14.4828235 47.8368,15.0183529 49.4090875,15.0183529 C51.0625375,15.0183529 52.4272,14.5035294 53.563475,13.3496471" id="Fill-6" fill="#000000" mask="url(#mask-2)"></path>
                </g>
                <polyline id="Fill-8" fill="#000000" points="66.3012687 15.8155294 68.8626062 15.8155294 68.8626062 1.14070588 65.9917187 1.14070588 65.9917187 10.1261176 60.1602875 1.14070588 57.5998937 1.14070588 57.5998937 15.8155294 60.4698375 15.8155294 60.4698375 6.80847059 66.3012687 15.8155294"></polyline>
                <g id="Group-12" transform="translate(76.443750, 0.000000)">
                    <mask id="mask-4" fill="white">
                        <use xlink:href="#path-3"></use>
                    </mask>
                    <g id="Clip-10"></g>
                    <polyline id="Fill-9" fill="#000000" mask="url(#mask-4)" points="8.37766875 15.8155294 11.2476125 15.8155294 11.2476125 1.14070588 8.37766875 1.14070588 8.37766875 7.13788235 3.39278125 7.13788235 3.39278125 1.14070588 0.52189375 1.14070588 0.52189375 15.8155294 3.39278125 15.8155294 3.39278125 9.67152941 8.37766875 9.67152941 8.37766875 15.8155294"></polyline>
                    <path d="M23.514475,14.3369412 C25.0159812,12.8385882 24.9942921,10.9863529 24.9942921,8.42447059 C24.9942921,5.86352941 25.0159812,4.00941176 23.514475,2.512 C22.4706875,1.472 21.1975687,0.889411765 19.505425,0.889411765 C17.814225,0.889411765 16.5194,1.472 15.4765562,2.512 C13.97505,4.00941176 14.016575,5.86352941 14.016575,8.42447059 C14.016575,10.9863529 13.97505,12.8385882 15.4765562,14.3369412 C16.5194,15.3778824 17.814225,15.9595294 19.505425,15.9595294 C21.1975687,15.9595294 22.4706875,15.3778824 23.514475,14.3369412 M22.0969625,8.42447059 C22.0969625,11.2771765 21.9299187,11.9642353 21.3646125,12.5891765 C20.9484187,13.0691765 20.2991187,13.3816471 19.505425,13.3816471 C18.712675,13.3816471 18.0445,13.0691765 17.6264187,12.5891765 C17.063,11.9642353 16.9167187,11.2771765 16.9167187,8.42447059 C16.9167187,5.57270588 17.063,4.88470588 17.6264187,4.25976471 C18.0445,3.77976471 18.712675,3.46729412 19.505425,3.46729412 C20.2991187,3.46729412 20.9484187,3.77976471 21.3646125,4.25976471 C21.9299187,4.88470588 22.0969625,5.57270588 22.0969625,8.42447059" id="Fill-11" fill="#000000" mask="url(#mask-4)"></path>
                </g>
                <polyline id="Fill-13" fill="#000000" points="109.167337 3.69411765 112.664875 3.69411765 112.664875 1.14070588 102.780981 1.14070588 102.780981 3.69411765 106.29645 3.69411765 106.29645 15.8155294 109.167337 15.8155294 109.167337 3.69411765"></polyline>
                <polyline id="Fill-14" fill="#000000" points="114.749619 15.8155294 123.800181 15.8155294 123.800181 13.2611765 117.430813 13.2611765 117.430813 9.69223529 122.8536 9.69223529 122.8536 7.13788235 117.430813 7.13788235 117.430813 3.69317647 123.800181 3.69317647 123.800181 1.14070588 114.749619 1.14070588 114.749619 15.8155294"></polyline>
                <g id="Group-18" transform="translate(126.462500, 0.941176)">
                    <mask id="mask-6" fill="white">
                        <use xlink:href="#path-5"></use>
                    </mask>
                    <g id="Clip-16"></g>
                    <polyline id="Fill-15" fill="#000000" mask="url(#mask-6)" points="0.381275 14.8743529 7.72648125 14.8743529 7.72648125 12.32 3.2521625 12.32 3.2521625 0.199529412 0.381275 0.199529412 0.381275 14.8743529"></polyline>
                    <path d="M12.415975,4.01317647 C12.415975,3.22917647 13.0775437,2.608 14.2855437,2.608 C15.3614188,2.608 16.3976562,3.09176471 17.3593375,3.872 L17.5311,4.01129412 L19.1269812,1.86447059 L18.9807,1.73647059 C17.6320812,0.56 16.0503563,0.0141176471 14.3478312,0.0141176471 C11.6015188,0.0141176471 9.6017125,1.73458824 9.6017125,4.25788235 C9.6017125,6.68517647 11.140025,7.73082353 13.865575,8.75294118 C16.130575,9.58682353 16.4646625,10.1327059 16.4646625,10.8969412 C16.4646625,11.8032941 15.7209875,12.4442353 14.4299375,12.4442353 C12.9954375,12.4442353 11.8601063,11.8042353 10.8144313,10.8621176 L10.5935937,10.6597647 L8.95335625,12.8122353 L9.09869375,12.9468235 C10.6908,14.4084706 12.5179,15.0588235 14.4082312,15.0588235 C17.1743625,15.0588235 19.2572187,13.3816471 19.2572187,10.6927059 C19.2572187,8.47905882 17.919925,7.328 15.2415625,6.30023529 C12.7953625,5.35811765 12.415975,4.87341176 12.415975,4.01317647" id="Fill-17" fill="#000000" mask="url(#mask-6)"></path>
                </g>
                <path d="M148.162144,1.46823529 L148.162144,1.15576471 L146.869206,1.15576471 L146.869206,1.46823529 L147.340137,1.46823529 L147.340137,2.95152941 L147.691212,2.95152941 L147.691212,1.46823529 L148.162144,1.46823529 Z M150.079844,2.95152941 L150.079844,1.15576471 L149.733487,1.15576471 L149.265387,2.12705882 L148.794456,1.15576471 L148.447156,1.15576471 L148.447156,2.95152941 L148.799175,2.95152941 L148.799175,1.90588235 L149.146475,2.58541176 L149.3843,2.58541176 L149.728769,1.90588235 L149.728769,2.95152941 L150.079844,2.95152941 L150.079844,2.95152941 Z" id="Fill-19" fill="#000000"></path>
            </g>
        </g>
    </g>
</svg>